<svg width="29" height="28" viewBox="0 0 29 28" fill="none" xmlns="http://www.w3.org/2000/svg">
<path d="M9.19062 0.962332L0.863885 6.32374L6.62673 10.9736L14.9998 5.79752L9.19062 0.962332Z" fill="#007EE5"/>
<path d="M0.864074 15.5049L9.19153 20.9734L15.0001 16.1374L6.6263 10.9625L0.864074 15.5049Z" fill="#007EE5"/>
<path d="M14.8663 16.1384L20.6755 20.9735L28.9713 15.5658L23.224 10.9623L14.8663 16.1384Z" fill="#007EE5"/>
<path d="M28.9714 6.36915L20.6748 0.962501L14.8663 5.79847L23.2246 10.9734L28.9714 6.36915Z" fill="#007EE5"/>
<path d="M15.1931 17.0209L9.36905 21.8569L6.86618 20.2349L6.8663 22.0579L15.1937 27.0474L23.505 22.0568L23.5049 20.2338L21.0177 21.8561L15.1931 17.0209Z" fill="#007EE5"/>
</svg>
